<svg xmlns="http://www.w3.org/2000/svg" xmlns:xlink="http://www.w3.org/1999/xlink" viewBox="4 4 70 50">
  <defs>
    <clipPath id="a"><rect x="17.49" y="5.4" width="39.72" height="43.85"/></clipPath>
    <clipPath id="b"><rect x="38.45" y="9.01" width="33.24" height="36.64"/></clipPath>
    <clipPath id="c"><rect x="6.66" y="10.5" width="30.55" height="33.65"/></clipPath>
  </defs>
  <g clip-path="url(#a)">
    <path fill="#939598" d="M23.52,49.24h0c-.53,0-1.06-.08-1.57-.23-2.27-.46-3.97-2.36-4.18-4.67-.19-1.27-.28-2.56-.28-3.84V14.25c-.04-1.72.23-3.44.79-5.07.69-2.19,2.7-3.69,4.99-3.73.75.01,1.49.16,2.19.43,3.52,1.47,6.93,3.2,10.19,5.18l1.17.67c4.6,2.62,9.23,5.35,13.72,7.99l2.13,1.26c.84.47,1.62,1.04,2.34,1.68,1.5,1.24,2.35,3.09,2.34,5.04-.17,1.89-1.16,3.6-2.72,4.67-2.08,1.5-4.25,2.87-6.49,4.11l-2.28,1.34-1.85,1.11c-5.17,3.12-10.52,6.35-16.09,9.02l-.39.19c-1.18.69-2.51,1.09-3.88,1.17M23.41,8.42c-1.04.07-1.92.79-2.2,1.8-.42,1.3-.62,2.67-.58,4.04v26.22c0,1.14.08,2.27.25,3.4.2,1.34.64,1.83,2.07,2.26.24.07.48.1.72.11.86-.11,1.7-.39,2.44-.84l.42-.2c5.45-2.62,10.72-5.84,15.82-8.88l1.86-1.17,2.34-1.36c2.14-1.19,4.21-2.5,6.19-3.93.85-.54,1.41-1.43,1.53-2.43-.02-1.05-.51-2.04-1.33-2.69-.54-.49-1.12-.93-1.75-1.3l-2.17-1.23c-4.48-2.63-9.09-5.35-13.67-7.97l-1.17-.67c-3.13-1.9-6.39-3.57-9.77-4.98-.37-.15-.77-.23-1.17-.23"/>
  </g>
  <g clip-path="url(#b)">
    <path fill="#e500af" d="M43.64,45.63h0c-2.48-.02-4.59-1.82-5-4.27-.15-1.06-.23-2.14-.23-3.21v-21.61c-.04-1.46.18-2.91.65-4.29.61-1.89,2.36-3.19,4.35-3.24.65,0,1.3.13,1.9.37,3.88,1.46,21.7,11.98,22.5,12.43.69.38,1.34.85,1.93,1.38,1.28,1.09,2,2.71,1.95,4.39-.13,1.63-.99,3.11-2.34,4.04-2.34,1.71-16.88,10.39-22.02,12.86l-.33.16c-1.01.58-2.14.91-3.31.97M43.49,12c-.75.05-1.37.58-1.55,1.31-.34,1.04-.5,2.14-.46,3.24v21.62c0,.92.07,1.85.21,2.76.15,1.02.43,1.32,1.51,1.65.17.05.35.07.53.07h0c.71-.08,1.39-.3,2-.67l.34-.18c4.88-2.34,19.35-10.93,21.53-12.55.63-.4,1.06-1.06,1.17-1.8-.03-.78-.4-1.52-1.01-2.01-.43-.4-.9-.75-1.4-1.04-5.18-3-19.07-11.08-22.05-12.24-.26-.1-.54-.16-.82-.16"/>
  </g>
  <g clip-path="url(#c)">
    <path fill="#e500af" d="M11.56,44.14h0c-.44,0-.87-.06-1.29-.19-1.85-.38-3.23-1.93-3.4-3.81-.14-.96-.21-1.94-.21-2.91v-19.74c-.04-1.34.17-2.68.61-3.95.56-1.79,2.21-3.02,4.09-3.04.61,0,1.21.12,1.78.35,2.66,1.1,5.23,2.41,7.69,3.9l.88.49c3.45,1.98,6.92,4.02,10.28,6l1.61.96c.63.37,1.22.81,1.76,1.31,1.19,1.01,1.86,2.51,1.82,4.08-.12,1.53-.92,2.92-2.17,3.8-1.57,1.13-3.2,2.17-4.9,3.11l-1.67.98-1.39.84c-3.88,2.34-7.9,4.76-12.1,6.78l-.29.14c-.94.54-1.99.85-3.07.9M11.41,13.49c-.62.05-1.14.49-1.3,1.1-.3.94-.44,1.92-.41,2.91v19.73c0,.83.06,1.67.19,2.49.12.82.3,1.1,1.29,1.39.14.04.29.06.43.06.62-.08,1.22-.28,1.76-.6l.3-.15c4.02-2.02,7.98-4.36,11.8-6.7l1.39-.83,1.74-1.03c1.59-.88,3.13-1.86,4.6-2.92.54-.34.91-.91,1.01-1.54-.03-.68-.35-1.31-.88-1.73-.39-.35-.81-.65-1.25-.92l-1.61-.95c-3.35-1.98-6.81-4.02-10.25-5.97l-.88-.47c-2.33-1.42-4.76-2.66-7.27-3.73-.22-.09-.46-.13-.7-.14"/>
  </g>
</svg>
